# xmcd
#
# Track frame offsets:
#	150
#	16634
#	34173
#	48444
#	65223
#	79532
#	94296
#	107642
#	124827
#	140355
#	156412
#	171969
#	187557
#	204261
#	222031
#	237972
#	254676
#	272508
#	288449
#
# Disc length: 3893 seconds
#
# Revision: 1
# Processed by: cddbd v1.5.2PL0 Copyright (c) Steve Scherf et al.
# Submitted via: audiograbber 1.83.01
#
DISCID=090f3313
DTITLE=Jamey Abersold Jazz - Down by the riverside
DYEAR=2012
DGENRE=National Folk
TTITLE0=Down by the riverside PB
TTITLE1=Smiles PB
TTITLE2=Jazz me blues PB
TTITLE3=Wabash Blues PB
TTITLE4=Ja-Da Pb
TTITLE5=Avalon PB
TTITLE6=Just a closer PB
TTITLE7=Some of these days PB
TTITLE8=A good man is hard to find PB
TTITLE9=Washington Lee Swing PB
TTITLE10=Ballin the jack PB
TTITLE11=When the saints PB
TTITLE12=Whos sorry now PB
TTITLE13=China boy PB
TTITLE14=Toot, toot tootsie PB
TTITLE15=Whos sorry now2 PB
TTITLE16=China boy2 PB
TTITLE17=Toot, toot tootsie2 PB
TTITLE18=Tuning Bb A
EXTD=Play along
EXTT0=
EXTT1=
EXTT2=
EXTT3=
EXTT4=
EXTT5=
EXTT6=
EXTT7=
EXTT8=
EXTT9=
EXTT10=
EXTT11=
EXTT12=
EXTT13=
EXTT14=
EXTT15=
EXTT16=
EXTT17=
EXTT18=
PLAYORDER=
